<?xml version="1.0" encoding="UTF-8"?>
<svg width="980px" height="128px" viewBox="0 0 980 128" version="1.1" xmlns="http://www.w3.org/2000/svg" xmlns:xlink="http://www.w3.org/1999/xlink">
    <!-- Generator: Sketch 48.2 (47327) - http://www.bohemiancoding.com/sketch -->
    <title>crypto-exchange</title>
    <desc>Created with Sketch.</desc>
    <defs></defs>
    <g id="Page-1" stroke="none" stroke-width="1" fill="none" fill-rule="evenodd">
        <g id="crypto-exchange" fill="#222222">
            <path d="M257.520004,41.4800001 C265.776005,41.4800001 273.072006,45.2560007 276.720007,51.5280017 L269.040006,56.2320025 C266.512005,52.3600019 262.448005,50.0560015 257.456004,50.0560015 C249.328003,50.0560015 243.312002,56.0080025 243.312002,64.7120039 C243.344002,73.7040054 249.552003,79.3680063 257.456004,79.3680063 C262.416005,79.3680063 266.448005,77.1280059 269.136006,73.2240053 L276.432007,78.4720061 C272.464006,84.2960071 265.712005,87.9440077 257.520004,87.9440077 C243.728002,87.9440077 234,78.1840061 234,64.7120039 C234,51.2400017 243.728002,41.4800001 257.520004,41.4800001 Z M300.572003,55.2720023 C302.364003,55.2720023 303.772004,55.5280024 304.924004,55.9440024 L303.676004,64.2320038 C302.300003,63.6240037 300.316003,63.2400036 298.620003,63.2400036 C294.748002,63.2400036 292.092002,65.608004 292.092002,70.2160048 L292.092002,87.1120076 L283.74,87.1120076 L283.74,56.1040025 L291.836002,56.1040025 L291.836002,59.496003 C293.788002,56.5840026 296.764002,55.2720023 300.572003,55.2720023 Z M343.400005,56.1040025 L319.688002,100.04001 L310.536,100.04001 L321.384002,80.5200065 L308.008,56.1040025 L317.480001,56.1040025 L325.992003,72.0400051 L334.248004,56.1040025 L343.400005,56.1040025 Z M365.460003,55.2720023 C374.036004,55.2720023 380.500006,62.2800035 380.500006,71.592005 C380.500006,80.9040065 374.036004,87.9120077 365.492003,87.9120077 C361.332002,87.9120077 358.388002,86.2800074 356.372002,83.880007 L356.372002,99.9120097 L348.052,99.9120097 L348.052,56.1040025 L356.212002,56.1040025 L356.212002,59.528003 C358.228002,57.0000026 361.204002,55.2720023 365.460003,55.2720023 Z M363.924003,63.0480036 C359.188002,63.0480036 355.956002,66.6960042 355.956002,71.592005 C355.956002,76.4880058 359.188002,80.1360064 363.924003,80.1360064 C368.852004,80.1360064 371.924004,76.3280058 371.924004,71.592005 C371.924004,66.8560042 368.852004,63.0480036 363.924003,63.0480036 Z M409.472004,56.1040025 L409.472004,63.5280037 L398.240002,63.5280037 L398.240002,74.8560055 C398.240002,78.7280062 400.288002,80.1360064 402.880003,80.1360064 C404.864003,80.1360064 407.008004,79.1440063 408.704004,78.1200061 L411.776004,84.6480072 C409.056004,86.5040075 405.920003,87.9120077 401.504003,87.9120077 C393.824001,87.9120077 389.888001,83.560007 389.888001,75.5280057 L389.888001,63.5280037 L383.904,63.5280037 L383.904,56.1040025 L389.888001,56.1040025 L389.888001,46.888001 L398.240002,46.888001 L398.240002,56.1040025 L409.472004,56.1040025 Z M431.244003,55.2720023 C440.908004,55.2720023 448.044005,62.2480035 448.044005,71.592005 C448.044005,80.9360065 440.908004,87.9120077 431.244003,87.9120077 C421.612001,87.9120077 414.508,80.9360065 414.508,71.592005 C414.508,62.2480035 421.612001,55.2720023 431.244003,55.2720023 Z M431.244003,63.0480036 C426.540002,63.0480036 423.020001,66.5680042 423.020001,71.592005 C423.020001,76.6160058 426.540002,80.1360064 431.244003,80.1360064 C435.948003,80.1360064 439.500004,76.6160058 439.500004,71.592005 C439.500004,66.5680042 435.948003,63.0480036 431.244003,63.0480036 Z M489.016006,78.9200062 L489.016006,87.1120076 L455.544,87.1120076 L455.544,42.3120002 L488.760006,42.3120002 L488.760006,50.5040016 L464.472002,50.5040016 L464.472002,60.4240032 L487.640006,60.4240032 L487.640006,68.6160045 L464.472002,68.6160045 L464.472002,78.9200062 L489.016006,78.9200062 Z M527.140005,56.1040025 L516.036003,71.336005 L527.332005,87.1120076 L517.412004,87.1120076 L510.436002,77.2560059 L503.588001,87.1120076 L493.924,87.1120076 L505.316002,71.368005 L494.212,56.1040025 L504.132001,56.1040025 L510.820002,65.7360041 L517.476004,56.1040025 L527.140005,56.1040025 Z M545.264003,55.2720023 C550.448003,55.2720023 554.832004,57.3840027 557.680005,61.1280033 L551.664004,66.1520041 C549.776003,64.1360038 547.760003,63.0480036 545.040003,63.0480036 C540.720002,63.0480036 537.264001,66.4400042 537.264001,71.592005 C537.264001,76.7760059 540.688002,80.1360064 545.008003,80.1360064 C547.696003,80.1360064 550.000003,78.9200062 551.760004,77.0000059 L557.712005,82.0880067 C554.800004,85.8320073 550.448003,87.9120077 545.264003,87.9120077 C535.376001,87.9120077 528.752,81.0000066 528.752,71.592005 C528.752,62.2160035 535.376001,55.2720023 545.264003,55.2720023 Z M572.060002,41 L572.060002,59.432003 C574.268002,56.3600025 577.564003,55.2720023 580.956003,55.2720023 C587.996004,55.2720023 593.020005,60.1680031 593.020005,67.3680043 L593.020005,87.1120076 L584.668004,87.1120076 L584.668004,70.0560048 C584.668004,65.576004 582.428003,63.1120036 578.620003,63.1120036 C575.036002,63.1120036 572.060002,65.448004 572.060002,70.1200048 L572.060002,87.1120076 L563.708,87.1120076 L563.708,41 L572.060002,41 Z M632.040005,56.1040025 L632.040005,87.1120076 L623.880004,87.1120076 L623.880004,83.688007 C621.864004,86.1840074 618.856003,87.9120077 614.600002,87.9120077 C606.056001,87.9120077 599.592,80.9040065 599.592,71.592005 C599.592,62.2800035 606.056001,55.2720023 614.600002,55.2720023 C618.856003,55.2720023 621.832004,57.0000026 623.880004,59.528003 L623.880004,56.1040025 L632.040005,56.1040025 Z M616.136003,63.0480036 C611.240002,63.0480036 608.136001,66.8560042 608.136001,71.592005 C608.136001,76.3280058 611.240002,80.1360064 616.136003,80.1360064 C620.904003,80.1360064 624.136004,76.4880058 624.136004,71.592005 C624.136004,66.6960042 620.904003,63.0480036 616.136003,63.0480036 Z M658.036003,55.2720023 C665.076004,55.2720023 670.100005,60.1680031 670.100005,67.3680043 L670.100005,87.1120076 L661.748004,87.1120076 L661.748004,70.0560048 C661.748004,65.576004 659.508003,63.1120036 655.700003,63.1120036 C652.116002,63.1120036 649.140002,65.448004 649.140002,70.1200048 L649.140002,87.1120076 L640.788,87.1120076 L640.788,56.1040025 L648.916002,56.1040025 L648.916002,59.7520031 C651.124002,56.4560025 654.516002,55.2720023 658.036003,55.2720023 Z M690.944002,55.2720023 C695.264003,55.2720023 698.432003,56.9360026 700.544004,59.560003 L700.544004,56.1040025 L708.736005,56.1040025 L708.736005,84.5520071 C708.736005,94.5040088 702.240004,100.52001 692.000002,100.52001 C687.104002,100.52001 681.920001,99.2400095 678.432,96.7760091 L681.408001,89.960008 C684.512001,92.0080084 687.936002,93.1280085 691.648002,93.1280085 C696.832003,93.1280085 700.480004,90.2480081 700.480004,84.9040072 L700.480004,82.7280068 C698.368003,85.3200073 695.232003,86.9200075 690.944002,86.9200075 C683.392001,86.9200075 676.672,80.6160065 676.672,71.1120049 C676.672,61.5760034 683.392001,55.2720023 690.944002,55.2720023 Z M693.056003,62.9520036 C688.288002,62.9520036 685.248001,66.6000042 685.248001,71.1120049 C685.248001,75.5920057 688.288002,79.2400063 693.056003,79.2400063 C697.696003,79.2400063 700.832004,75.7200057 700.832004,71.1120049 C700.832004,66.4720042 697.696003,62.9520036 693.056003,62.9520036 Z M731.244002,55.2720023 C740.172004,55.2720023 746.284005,61.8960034 746.316005,71.560005 C746.316005,72.5200052 746.252005,73.6720054 746.156005,74.3760055 L724.172001,74.3760055 C725.068001,78.8560062 728.204002,80.8080065 732.140003,80.8080065 C734.828003,80.8080065 737.740004,79.7200063 739.980004,77.832006 L744.876005,83.2080069 C741.356004,86.4400074 736.876003,87.9120077 731.660003,87.9120077 C722.156001,87.9120077 715.564,81.4480066 715.564,71.688005 C715.564,61.9280034 721.964001,55.2720023 731.244002,55.2720023 Z M731.180002,62.4720035 C727.244002,62.4720035 724.940001,64.8400039 724.204001,68.6800045 L737.932004,68.6800045 C737.164003,64.7120039 734.764003,62.4720035 731.180002,62.4720035 Z" id="CryptoExchange"></path>
        </g>
    </g>
</svg>